<?xml version="1.0" encoding="UTF-8" standalone="no"?>
<!-- Created with Inkscape (http://www.inkscape.org/) -->

<svg
   width="36.031002mm"
   height="14.985471mm"
   viewBox="0 0 36.031003 14.985471"
   version="1.1"
   id="svg1"
   xml:space="preserve"
   inkscape:export-filename="iecl_blue.svg"
   inkscape:export-xdpi="96"
   inkscape:export-ydpi="96"
   xmlns:inkscape="http://www.inkscape.org/namespaces/inkscape"
   xmlns:sodipodi="http://sodipodi.sourceforge.net/DTD/sodipodi-0.dtd"
   xmlns="http://www.w3.org/2000/svg"
   xmlns:svg="http://www.w3.org/2000/svg"><sodipodi:namedview
     id="namedview1"
     pagecolor="#505050"
     bordercolor="#eeeeee"
     borderopacity="1"
     inkscape:showpageshadow="0"
     inkscape:pageopacity="0"
     inkscape:pagecheckerboard="0"
     inkscape:deskcolor="#505050"
     inkscape:document-units="mm"><inkscape:page
       x="-5.3935949e-09"
       y="-1.6558047e-08"
       width="36.031006"
       height="14.985471"
       id="page1"
       margin="0"
       bleed="0" /></sodipodi:namedview><defs
     id="defs1" /><g
     id="g1"
     inkscape:groupmode="layer"
     inkscape:label="1"
     transform="matrix(0.26458332,0,0,0.26458335,-2.1981087,-2.0684425)"><g
       id="group-R5"><path
         id="path2"
         d="m 62.3086,293.242 h 46.875 v 343.125 h -46.875 z"
         style="fill:#ffffff;fill-opacity:1;fill-rule:nonzero;stroke:none"
         transform="matrix(0.13333333,0,0,-0.13333333,0,93.333333)" /><path
         id="path3"
         d="m 320.445,597.207 c -29.609,-0.137 -51.25,-4.453 -64.922,-12.949 -13.671,-8.508 -20.468,-22.363 -20.382,-41.582 0.109,-23.281 6.574,-39.426 19.39,-48.43 12.813,-9.004 33.242,-13.445 61.289,-13.32 10.606,0.051 21.508,0.879 32.715,2.492 l -0.504,111.562 c -13.715,1.504 -22.91,2.247 -27.586,2.227 z M 154.391,292.715 253.375,451.199 c -18.277,4.133 -34.086,14.797 -47.437,32.004 -13.34,17.195 -20.067,36.57 -20.165,58.125 -0.293,65.598 40.782,98.574 123.215,98.945 10.305,0.047 26.746,-0.468 49.309,-1.535 22.562,-1.07 34.703,-1.601 36.422,-1.601 l 1.547,-343.348 -46.875,-0.195 -0.676,149.824 c -22.629,-1.66 -39.168,-2.52 -49.629,-2.559 l -90.945,-147.91 -53.75,-0.234"
         style="fill:#ffffff;fill-opacity:1;fill-rule:nonzero;stroke:none"
         transform="matrix(0.13333333,0,0,-0.13333333,0,93.333333)" /><path
         id="path4"
         d="m 725.898,293.242 -40.937,220 -74.688,-225 h -11.875 l -77.183,225 -40.313,-220 h -44.375 l 64.375,343.125 h 21.25 l 82.184,-250.629 75.312,250.629 h 21.25 l 69.375,-343.125 h -44.375"
         style="fill:#ffffff;fill-opacity:1;fill-rule:nonzero;stroke:none"
         transform="matrix(0.13333333,0,0,-0.13333333,0,93.333333)" /><path
         id="path5"
         d="M 917.383,551.367 864.18,400.113 H 966.191 Z M 1033.34,219.922 979.59,365.738 H 851.758 l -25.313,-72.496 h -52.5 L 913.32,641.367 h 12.5 l 157.52,-424.785 -50,3.34"
         style="fill:#ffffff;fill-opacity:1;fill-rule:nonzero;stroke:none"
         transform="matrix(0.13333333,0,0,-0.13333333,0,93.333333)" /><path
         id="path6"
         d="m 63.5391,216.582 h 999.59 v 40 h -999.59 z"
         style="fill:#ffffff;fill-opacity:1;fill-rule:nonzero;stroke:none"
         transform="matrix(0.13333333,0,0,-0.13333333,0,93.333333)" /><path
         id="path7"
         d="m 1083.66,216.582 -24.08,0.117 v 2.188 l 24.08,-2.305"
         style="fill:#ffffff;fill-opacity:1;fill-rule:nonzero;stroke:none"
         transform="matrix(0.13333333,0,0,-0.13333333,0,93.333333)" /></g></g></svg>
